ffmpeg version 3.4.8-0ubuntu0.2 Copyright (c) 2000-2020 the FFmpeg developers
  built with gcc 7 (Ubuntu 7.5.0-3ubuntu1~18.04)
  configuration: --prefix=/usr --extra-version=0ubuntu0.2 --toolchain=hardened --libdir=/usr/lib/x86_64-linux-gnu --incdir=/usr/include/x86_64-linux-gnu --enable-gpl --disable-stripping --enable-avresample --enable-avisynth --enable-gnutls --enable-ladspa --enable-libass --enable-libbluray --enable-libbs2b --enable-libcaca --enable-libcdio --enable-libflite --enable-libfontconfig --enable-libfreetype --enable-libfribidi --enable-libgme --enable-libgsm --enable-libmp3lame --enable-libmysofa --enable-libopenjpeg --enable-libopenmpt --enable-libopus --enable-libpulse --enable-librubberband --enable-librsvg --enable-libshine --enable-libsnappy --enable-libsoxr --enable-libspeex --enable-libssh --enable-libtheora --enable-libtwolame --enable-libvorbis --enable-libvpx --enable-libwavpack --enable-libwebp --enable-libx265 --enable-libxml2 --enable-libxvid --enable-libzmq --enable-libzvbi --enable-omx --enable-openal --enable-opengl --enable-sdl2 --enable-libdc1394 --enable-libdrm --enable-libiec61883 --enable-chromaprint --enable-frei0r --enable-libopencv --enable-libx264 --enable-shared
  libavutil      55. 78.100 / 55. 78.100
  libavcodec     57.107.100 / 57.107.100
  libavformat    57. 83.100 / 57. 83.100
  libavdevice    57. 10.100 / 57. 10.100
  libavfilter     6.107.100 /  6.107.100
  libavresample   3.  7.  0 /  3.  7.  0
  libswscale      4.  8.100 /  4.  8.100
  libswresample   2.  9.100 /  2.  9.100
  libpostproc    54.  7.100 / 54.  7.100
[rawvideo @ 0x55f91e2d2a20] Estimating duration from bitrate, this may be inaccurate
Input #0, rawvideo, from '../../SVC-Encoder-20220109T061506Z-001/SVC-Encoder/Dataset/RollerCoaster/ERP_8x8/tile_yuv/Tile_23_480x240.yuv':
  Duration: 00:00:10.00, start: 0.000000, bitrate: 41472 kb/s
    Stream #0:0: Video: rawvideo (I420 / 0x30323449), yuv420p, 480x240, 41472 kb/s, 30 tbr, 30 tbn, 30 tbc
Stream mapping:
  Stream #0:0 -> #0:0 (rawvideo (native) -> h264 (libx264))
Press [q] to stop, [?] for help
[libx264 @ 0x55f91e2dfc60] using cpu capabilities: MMX2 SSE2Fast LZCNT SSSE3 SSE4.2 AVX
[libx264 @ 0x55f91e2dfc60] profile High, level 2.1
Output #0, rawvideo, to 'RollerCoaster_Tile_23_480x240_x264_QP_28.h264':
  Metadata:
    encoder         : Lavf57.83.100
    Stream #0:0: Video: h264 (libx264), yuv420p, 480x240, q=-1--1, 30 fps, 30 tbn, 30 tbc
    Metadata:
      encoder         : Lavc57.107.100 libx264
    Side data:
      cpb: bitrate max/min/avg: 0/0/0 buffer size: 0 vbv_delay: -1
frame=  236 fps=0.0 q=34.0 PSNR=Y:nan U:nan V:nan *:nan size=      43kB time=00:00:06.43 bitrate=  54.4kbits/s speed=12.8x    frame=  300 fps=0.0 q=34.0 LPSNR=Y:inf U:inf V:inf *:inf size=      64kB time=00:00:09.93 bitrate=  53.1kbits/s speed=14.6x    
video:64kB audio:0kB subtitle:0kB other streams:0kB global headers:0kB muxing overhead: 0.000000%
[libx264 @ 0x55f91e2dfc60] frame I:2     Avg QP:26.53  size:  5142  PSNR Mean Y:43.57 U:48.60 V:51.23 Avg:44.83 Global:44.77
[libx264 @ 0x55f91e2dfc60] frame P:78    Avg QP:27.55  size:   431  PSNR Mean Y:42.42 U:48.23 V:50.37 Avg:43.74 Global:43.73
[libx264 @ 0x55f91e2dfc60] frame B:220   Avg QP:33.51  size:   100  PSNR Mean Y:42.22 U:48.19 V:50.37 Avg:43.56 Global:43.55
[libx264 @ 0x55f91e2dfc60] consecutive B-frames:  1.0%  2.7%  3.0% 93.3%
[libx264 @ 0x55f91e2dfc60] mb I  I16..4: 32.2% 60.1%  7.7%
[libx264 @ 0x55f91e2dfc60] mb P  I16..4:  0.5%  0.3%  0.0%  P16..4: 29.2%  3.9%  0.4%  0.0%  0.0%    skip:65.7%
[libx264 @ 0x55f91e2dfc60] mb B  I16..4:  0.0%  0.0%  0.0%  B16..8: 18.9%  0.2%  0.0%  direct: 0.0%  skip:80.9%  L0:37.1% L1:62.8% BI: 0.1%
[libx264 @ 0x55f91e2dfc60] 8x8 transform intra:55.3% inter:80.8%
[libx264 @ 0x55f91e2dfc60] coded y,uvDC,uvAC intra: 38.8% 41.3% 2.2% inter: 1.5% 1.2% 0.0%
[libx264 @ 0x55f91e2dfc60] i16 v,h,dc,p: 27% 35% 24% 14%
[libx264 @ 0x55f91e2dfc60] i8 v,h,dc,ddl,ddr,vr,hd,vl,hu:  4% 21% 43%  3%  4%  2%  8%  3% 12%
[libx264 @ 0x55f91e2dfc60] i4 v,h,dc,ddl,ddr,vr,hd,vl,hu:  3% 27% 40%  3%  2%  1% 10%  1% 14%
[libx264 @ 0x55f91e2dfc60] i8c dc,h,v,p: 56% 33%  7%  4%
[libx264 @ 0x55f91e2dfc60] Weighted P-Frames: Y:0.0% UV:0.0%
[libx264 @ 0x55f91e2dfc60] ref P L0: 59.2% 18.9% 16.5%  5.4%
[libx264 @ 0x55f91e2dfc60] ref B L0: 74.6% 21.4%  4.0%
[libx264 @ 0x55f91e2dfc60] ref B L1: 77.1% 22.9%
[libx264 @ 0x55f91e2dfc60] PSNR Mean Y:42.280 U:48.203 V:50.375 Avg:43.615 Global:43.605 kb/s:52.72
